<?xml version="1.0" encoding="utf-8"?>
<!-- Generator: Adobe Illustrator 16.0.0, SVG Export Plug-In . SVG Version: 6.00 Build 0)  -->
<!DOCTYPE svg PUBLIC "-//W3C//DTD SVG 1.1//EN" "http://www.w3.org/Graphics/SVG/1.1/DTD/svg11.dtd">
<svg version="1.1" id="Layer_1" xmlns="http://www.w3.org/2000/svg" xmlns:xlink="http://www.w3.org/1999/xlink" x="0px" y="0px"
	 width="76px" height="76px" viewBox="0 0 76 76" enable-background="new 0 0 76 76" xml:space="preserve">
<circle fill="#E59900" cx="38" cy="38" r="38"/>
<g>
	<path fill="#FFFFFF" d="M58.465,22.459c-4.737,3.44-12.252,5.665-20.715,5.665S21.772,25.9,17.035,22.459
		c-3.285,4.348-5.236,9.76-5.236,15.63c0,14.333,11.619,25.952,25.951,25.952s25.951-11.619,25.951-25.952
		C63.701,32.22,61.75,26.807,58.465,22.459z M22.75,45.042c-0.989,0-1.792-0.803-1.792-1.792c0-0.99,0.803-1.792,1.792-1.792
		s1.792,0.802,1.792,1.792C24.542,44.24,23.739,45.042,22.75,45.042z M37.75,59.751c-0.495,0.447-1.771,1.207-4.858,1.207
		c3.213-0.812,4.345-2.129,4.358-2.146V52.81c-0.675-0.132-1.167-0.517-1.167-0.976c0-0.567,0.746-1.028,1.667-1.028
		s1.667,0.461,1.667,1.028c0,0.459-0.492,0.844-1.167,0.976v6.003c0.014,0.016,1.146,1.333,4.358,2.146
		C39.521,60.958,38.245,60.199,37.75,59.751z M52.75,45.042c-0.989,0-1.792-0.803-1.792-1.792c0-0.99,0.803-1.792,1.792-1.792
		s1.792,0.802,1.792,1.792C54.542,44.24,53.739,45.042,52.75,45.042z"/>
	<path fill="#FFE088" d="M58.465,33.246c1.63,0,3.169-0.372,4.554-1.019c-0.832-3.598-2.398-6.915-4.554-9.767
		c-2.567,1.864-5.955,3.367-9.862,4.357C50.277,30.601,54.06,33.246,58.465,33.246z"/>
	<path fill="#FFE088" d="M12.481,32.227c1.385,0.647,2.924,1.019,4.554,1.019c4.405,0,8.188-2.645,9.862-6.429
		c-3.907-0.99-7.295-2.493-9.862-4.357C14.88,25.312,13.313,28.629,12.481,32.227z"/>
</g>
</svg>
